<?xml version="1.0" encoding="UTF-8"?>
<!DOCTYPE svg PUBLIC "-//W3C//DTD SVG 1.1//EN" "http://www.w3.org/Graphics/SVG/1.1/DTD/svg11.dtd">
<svg xmlns="http://www.w3.org/2000/svg" version="1.1" width="2000px" height="2000px" style="shape-rendering:geometricPrecision; text-rendering:geometricPrecision; image-rendering:optimizeQuality; fill-rule:evenodd; clip-rule:evenodd" xmlns:xlink="http://www.w3.org/1999/xlink">
<g><path style="opacity:1" fill="#f9f9f9" d="M -0.5,-0.5 C 666.167,-0.5 1332.83,-0.5 1999.5,-0.5C 1999.5,666.167 1999.5,1332.83 1999.5,1999.5C 1332.83,1999.5 666.167,1999.5 -0.5,1999.5C -0.5,1332.83 -0.5,666.167 -0.5,-0.5 Z"/></g>
<g><path style="opacity:1" fill="#25709c" d="M 984.5,351.5 C 1000.51,349.26 1012.68,354.926 1021,368.5C 1092.43,513.201 1164.27,657.701 1236.5,802C 1115.4,889.672 1027.57,1003.17 973,1142.5C 927.76,1233.31 882.76,1324.31 838,1415.5C 835.537,1418.96 832.704,1422.13 829.5,1425C 699.719,1474.22 569.719,1522.89 439.5,1571C 416.092,1571.96 403.092,1560.79 400.5,1537.5C 400.537,1532.56 401.703,1527.89 404,1523.5C 590.744,1137.01 777.744,750.68 965,364.5C 970.36,358.281 976.86,353.947 984.5,351.5 Z"/></g>
<g><path style="opacity:1" fill="#25709c" d="M 1247.5,826.5 C 1264.81,859.127 1281.65,892.127 1298,925.5C 1397.33,1125.5 1496.67,1325.5 1596,1525.5C 1601.27,1544.71 1595.1,1558.87 1577.5,1568C 1568.82,1571.28 1560.15,1571.28 1551.5,1568C 1430.5,1523 1309.5,1478 1188.5,1433C 1179.26,1430.08 1172.1,1424.58 1167,1416.5C 1132.26,1347.34 1097.26,1278.34 1062,1209.5C 1060.5,1174.54 1064.5,1140.2 1074,1106.5C 1106.75,997.266 1164.59,903.933 1247.5,826.5 Z"/></g>
</svg>
